<?xml version="1.0" encoding="UTF-8" standalone="no"?>
<!-- Created with Inkscape (http://www.inkscape.org/) -->

<svg
   xmlns:ns1="http://www.iki.fi/pav/software/textext/"
   xmlns:dc="http://purl.org/dc/elements/1.1/"
   xmlns:cc="http://creativecommons.org/ns#"
   xmlns:rdf="http://www.w3.org/1999/02/22-rdf-syntax-ns#"
   xmlns:svg="http://www.w3.org/2000/svg"
   xmlns="http://www.w3.org/2000/svg"
   xmlns:sodipodi="http://sodipodi.sourceforge.net/DTD/sodipodi-0.dtd"
   xmlns:inkscape="http://www.inkscape.org/namespaces/inkscape"
   id="svg17753"
   version="1.1"
   viewBox="0 0 210 297"
   height="297mm"
   width="210mm"
   inkscape:version="0.92.3 (2405546, 2018-03-11)"
   sodipodi:docname="reference_frames.svg">
  <sodipodi:namedview
     inkscape:window-maximized="1"
     inkscape:window-y="-8"
     inkscape:window-x="-8"
     inkscape:window-height="1017"
     inkscape:window-width="1920"
     showgrid="false"
     inkscape:current-layer="svg17753"
     inkscape:document-units="mm"
     inkscape:cy="636.45464"
     inkscape:cx="213.26279"
     inkscape:zoom="1.4"
     inkscape:pageshadow="2"
     inkscape:pageopacity="0.0"
     borderopacity="1.0"
     bordercolor="#666666"
     pagecolor="#ffffff"
     id="base">
    <inkscape:grid
       id="grid18298"
       type="xygrid" />
  </sodipodi:namedview>
  <defs
     id="defs17747">
    <marker
       inkscape:stockid="Arrow1Mend"
       orient="auto"
       refY="0.0"
       refX="0.0"
       id="Arrow1Mend"
       style="overflow:visible;"
       inkscape:isstock="true">
      <path
         id="path828"
         d="M 0.0,0.0 L 5.0,-5.0 L -12.5,0.0 L 5.0,5.0 L 0.0,0.0 z "
         style="fill-rule:evenodd;stroke:#ff0000;stroke-width:1pt;stroke-opacity:1;fill:#ff0000;fill-opacity:1"
         transform="scale(0.4) rotate(180) translate(10,0)" />
    </marker>
    <marker
       inkscape:stockid="Arrow1Send"
       orient="auto"
       refY="0.0"
       refX="0.0"
       id="Arrow1Send"
       style="overflow:visible;"
       inkscape:isstock="true">
      <path
         id="path834"
         d="M 0.0,0.0 L 5.0,-5.0 L -12.5,0.0 L 5.0,5.0 L 0.0,0.0 z "
         style="fill-rule:evenodd;stroke:#ff0000;stroke-width:1pt;stroke-opacity:1;fill:#ff0000;fill-opacity:1"
         transform="scale(0.2) rotate(180) translate(6,0)" />
    </marker>
    <marker
       inkscape:stockid="Arrow2Lend"
       orient="auto"
       refY="0.0"
       refX="0.0"
       id="Arrow2Lend"
       style="overflow:visible;"
       inkscape:isstock="true">
      <path
         id="path840"
         style="fill-rule:evenodd;stroke-width:0.625;stroke-linejoin:round;stroke:#ff0000;stroke-opacity:1;fill:#ff0000;fill-opacity:1"
         d="M 8.7185878,4.0337352 L -2.2072895,0.016013256 L 8.7185884,-4.0017078 C 6.9730900,-1.6296469 6.9831476,1.6157441 8.7185878,4.0337352 z "
         transform="scale(1.1) rotate(180) translate(1,0)" />
    </marker>
    <marker
       inkscape:stockid="Arrow1Lend"
       orient="auto"
       refY="0.0"
       refX="0.0"
       id="marker26998"
       style="overflow:visible;"
       inkscape:isstock="true">
      <path
         id="path26996"
         d="M 0.0,0.0 L 5.0,-5.0 L -12.5,0.0 L 5.0,5.0 L 0.0,0.0 z "
         style="fill-rule:evenodd;stroke:#ff0000;stroke-width:1pt;stroke-opacity:1;fill:#ff0000;fill-opacity:1"
         transform="scale(0.8) rotate(180) translate(12.5,0)" />
    </marker>
    <marker
       inkscape:stockid="Arrow1Lend"
       orient="auto"
       refY="0.0"
       refX="0.0"
       id="marker26964"
       style="overflow:visible;"
       inkscape:isstock="true">
      <path
         id="path26962"
         d="M 0.0,0.0 L 5.0,-5.0 L -12.5,0.0 L 5.0,5.0 L 0.0,0.0 z "
         style="fill-rule:evenodd;stroke:#ff0000;stroke-width:1pt;stroke-opacity:1;fill:#ff0000;fill-opacity:1"
         transform="scale(0.8) rotate(180) translate(12.5,0)" />
    </marker>
    <marker
       inkscape:isstock="true"
       style="overflow:visible"
       id="Arrow1Mstart"
       refX="0.0"
       refY="0.0"
       orient="auto"
       inkscape:stockid="Arrow1Mstart">
      <path
         transform="scale(0.4) translate(10,0)"
         style="fill-rule:evenodd;stroke:#0064a0;stroke-width:1pt;stroke-opacity:1;fill:#0064a0;fill-opacity:1"
         d="M 0.0,0.0 L 5.0,-5.0 L -12.5,0.0 L 5.0,5.0 L 0.0,0.0 z "
         id="path825" />
    </marker>
    <marker
       inkscape:stockid="Arrow1Lend"
       orient="auto"
       refY="0.0"
       refX="0.0"
       id="marker24694"
       style="overflow:visible;"
       inkscape:isstock="true">
      <path
         id="path24692"
         d="M 0.0,0.0 L 5.0,-5.0 L -12.5,0.0 L 5.0,5.0 L 0.0,0.0 z "
         style="fill-rule:evenodd;stroke:#009800;stroke-width:1pt;stroke-opacity:1;fill:#009800;fill-opacity:1"
         transform="scale(0.8) rotate(180) translate(12.5,0)" />
    </marker>
    <marker
       inkscape:isstock="true"
       style="overflow:visible;"
       id="Arrow1Lend"
       refX="0.0"
       refY="0.0"
       orient="auto"
       inkscape:stockid="Arrow1Lend"
       inkscape:collect="always">
      <path
         transform="scale(0.8) rotate(180) translate(12.5,0)"
         style="fill-rule:evenodd;stroke:#000000;stroke-width:1pt;stroke-opacity:1;fill:#000000;fill-opacity:1"
         d="M 0.0,0.0 L 5.0,-5.0 L -12.5,0.0 L 5.0,5.0 L 0.0,0.0 z "
         id="path822" />
    </marker>
    <marker
       inkscape:isstock="true"
       style="overflow:visible"
       id="Arrow1Lstart"
       refX="0.0"
       refY="0.0"
       orient="auto"
       inkscape:stockid="Arrow1Lstart">
      <path
         transform="scale(0.8) translate(12.5,0)"
         style="fill-rule:evenodd;stroke:#000000;stroke-width:1pt;stroke-opacity:1;fill:#000000;fill-opacity:1"
         d="M 0.0,0.0 L 5.0,-5.0 L -12.5,0.0 L 5.0,5.0 L 0.0,0.0 z "
         id="path819" />
    </marker>
    <marker
       inkscape:isstock="true"
       style="overflow:visible"
       id="Arrow1Lstart-2"
       refX="0"
       refY="0"
       orient="auto"
       inkscape:stockid="Arrow1Lstart">
      <path
         transform="matrix(0.8,0,0,0.8,10,0)"
         style="fill:#0064e6;fill-opacity:1;fill-rule:evenodd;stroke:#0064e6;stroke-width:1.00000003pt;stroke-opacity:1"
         d="M 0,0 5,-5 -12.5,0 5,5 Z"
         id="path819-5"
         inkscape:connector-curvature="0" />
    </marker>
    <marker
       inkscape:isstock="true"
       style="overflow:visible"
       id="Arrow1Lend-8"
       refX="0"
       refY="0"
       orient="auto"
       inkscape:stockid="Arrow1Lend">
      <path
         transform="matrix(-0.8,0,0,-0.8,-10,0)"
         style="fill:#0064e6;fill-opacity:1;fill-rule:evenodd;stroke:#0064e6;stroke-width:1.00000003pt;stroke-opacity:1"
         d="M 0,0 5,-5 -12.5,0 5,5 Z"
         id="path822-0"
         inkscape:connector-curvature="0" />
    </marker>
    <marker
       inkscape:isstock="true"
       style="overflow:visible"
       id="Arrow1Lstart-2-1"
       refX="0"
       refY="0"
       orient="auto"
       inkscape:stockid="Arrow1Lstart">
      <path
         transform="matrix(0.8,0,0,0.8,10,0)"
         style="fill:#0064a0;fill-opacity:1;fill-rule:evenodd;stroke:#0064a0;stroke-width:1.00000003pt;stroke-opacity:1"
         d="M 0,0 5,-5 -12.5,0 5,5 Z"
         id="path819-5-3"
         inkscape:connector-curvature="0" />
    </marker>
    <marker
       inkscape:isstock="true"
       style="overflow:visible"
       id="Arrow1Lend-8-0"
       refX="0"
       refY="0"
       orient="auto"
       inkscape:stockid="Arrow1Lend">
      <path
         transform="matrix(-0.8,0,0,-0.8,-10,0)"
         style="fill:#0064a0;fill-opacity:1;fill-rule:evenodd;stroke:#0064a0;stroke-width:1.00000003pt;stroke-opacity:1"
         d="M 0,0 5,-5 -12.5,0 5,5 Z"
         id="path822-0-7"
         inkscape:connector-curvature="0" />
    </marker>
  </defs>
  <metadata
     id="metadata17750">
    <rdf:RDF>
      <cc:Work
         rdf:about="">
        <dc:format>image/svg+xml</dc:format>
        <dc:type
           rdf:resource="http://purl.org/dc/dcmitype/StillImage" />
        <dc:title></dc:title>
      </cc:Work>
    </rdf:RDF>
  </metadata>
  <g
     id="layer1"
     inkscape:groupmode="layer"
     inkscape:label="Layer 1">
    <path
       inkscape:connector-curvature="0"
       id="path18304"
       d="M 84.666666,85.333334 V 170 h 84.666664"
       style="fill:none;stroke:#000000;stroke-width:0.465;stroke-linecap:butt;stroke-linejoin:miter;stroke-opacity:1;stroke-miterlimit:4;stroke-dasharray:none;marker-start:url(#Arrow1Lstart);marker-end:url(#Arrow1Lend)" />
    <path
       inkscape:connector-curvature="0"
       id="path18304-3"
       d="M 39.313825,98.504787 84.666667,170 156.16187,124.64716"
       style="fill:none;stroke:#0064e6;stroke-width:0.465;stroke-linecap:butt;stroke-linejoin:miter;stroke-miterlimit:4;stroke-dasharray:none;stroke-opacity:1;marker-start:url(#Arrow1Lstart-2);marker-end:url(#Arrow1Lend-8)" />
    <path
       inkscape:connector-curvature="0"
       id="path18304-3-6"
       d="M 25.118464,109.81315 84.666667,170 144.85352,110.4518"
       style="fill:none;stroke:#0064a0;stroke-width:0.465;stroke-linecap:butt;stroke-linejoin:miter;stroke-miterlimit:4;stroke-dasharray:none;stroke-opacity:1;marker-start:url(#Arrow1Lstart-2-1);marker-end:url(#Arrow1Lend-8-0);fill-opacity:1" />
    <path
       d="m 136.47038,101.27203 a 100.89579,76.716484 0 0 1 8.84173,8.35564"
       sodipodi:open="true"
       sodipodi:end="5.6756067"
       sodipodi:start="5.5356996"
       sodipodi:ry="76.716484"
       sodipodi:rx="100.89579"
       sodipodi:cy="153.42366"
       sodipodi:cx="62.473366"
       sodipodi:type="arc"
       id="path24681"
       style="fill:none;fill-opacity:1;stroke:#0064a0;stroke-width:0.465;stroke-linecap:square;stroke-linejoin:miter;stroke-miterlimit:4;stroke-dasharray:none;stroke-dashoffset:0;stroke-opacity:1;marker-start:url(#Arrow1Mstart)" />
    <g
       style="fill:#009500;fill-opacity:1"
       transform="matrix(0.705556,0,0,0.705556,16.642996,-11.496136)"
       ns1:version="0.10.2"
       ns1:texconverter="pdflatex"
       ns1:pdfconverter="pdf2svg"
       ns1:text="$\\bar{V}$"
       ns1:preamble="C:\\Users\\perei\\AppData\\Roaming\\inkscape\\extensions\\textext\\default_packages.tex"
       ns1:scale="2.0"
       ns1:alignment="middle center"
       ns1:jacobian_sqrt="0.705556"
       id="g27129">
      <g
         style="fill:#009500;fill-opacity:1"
         id="surface1">
        <g
           style="fill:#009500;fill-opacity:1"
           id="g27122">
          <path
             inkscape:connector-curvature="0"
             style="stroke:none;stroke-width:0;fill:#009500;fill-opacity:1"
             d="M 4.28125,-5.578125 V -5.875 H 0.6875 v 0.296875 z m 0,0"
             transform="translate(150.234,132.246)"
             id="path27120" />
        </g>
        <g
           style="fill:#009500;fill-opacity:1"
           id="g27126">
          <path
             inkscape:connector-curvature="0"
             style="stroke:none;stroke-width:0;fill:#009500;fill-opacity:1"
             d="M 6.265625,-5.671875 C 6.75,-6.453125 7.171875,-6.484375 7.53125,-6.5 c 0.125,-0.015625 0.140625,-0.171875 0.140625,-0.1875 0,-0.078125 -0.0625,-0.125 -0.140625,-0.125 -0.25,0 -0.546875,0.03125 -0.8125,0.03125 -0.328125,0 -0.671875,-0.03125 -0.984375,-0.03125 -0.0625,0 -0.1875,0 -0.1875,0.1875 0,0.109375 0.078125,0.125 0.15625,0.125 0.265625,0.015625 0.453125,0.125 0.453125,0.328125 0,0.15625 -0.140625,0.375 -0.140625,0.375 l -3.0625,4.875 -0.6875,-5.28125 C 2.265625,-6.375 2.5,-6.5 2.953125,-6.5 c 0.140625,0 0.25,0 0.25,-0.203125 0,-0.078125 -0.078125,-0.109375 -0.125,-0.109375 -0.40625,0 -0.828125,0.03125 -1.25,0.03125 -0.171875,0 -0.359375,0 -0.546875,0 -0.171875,0 -0.359375,-0.03125 -0.53125,-0.03125 -0.078125,0 -0.1875,0 -0.1875,0.1875 0,0.125 0.078125,0.125 0.25,0.125 0.546875,0 0.5625,0.09375 0.59375,0.34375 L 2.1875,-0.015625 C 2.21875,0.1875 2.265625,0.21875 2.390625,0.21875 c 0.15625,0 0.203125,-0.046875 0.28125,-0.171875 z m 0,0"
             transform="translate(148.712,134.765)"
             id="path27124" />
        </g>
      </g>
    </g>
  </g>
  <g
     id="g25929"
     ns1:jacobian_sqrt="0.705556"
     ns1:alignment="middle center"
     ns1:scale="2.0"
     ns1:preamble="C:\\Users\\perei\\AppData\\Roaming\\inkscape\\extensions\\textext\\default_packages.tex"
     ns1:text="$d$"
     ns1:pdfconverter="pdf2svg"
     ns1:texconverter="pdflatex"
     ns1:version="0.10.2"
     transform="matrix(0.705556,0,0,0.705556,42.03954,14.617436)">
    <g
       id="g27134">
      <g
         id="g25926"
         style="fill:#000000;fill-opacity:1">
        <path
           id="path25924"
           transform="translate(148.712,134.765)"
           d="m 5.140625,-6.8125 c 0,0 0,-0.109375 -0.125,-0.109375 -0.15625,0 -1.09375,0.09375 -1.265625,0.109375 -0.078125,0.015625 -0.140625,0.0625 -0.140625,0.1875 0,0.125 0.09375,0.125 0.234375,0.125 0.484375,0 0.5,0.0625 0.5,0.171875 L 4.3125,-6.125 3.71875,-3.765625 C 3.53125,-4.140625 3.25,-4.40625 2.796875,-4.40625 c -1.15625,0 -2.390625,1.46875 -2.390625,2.921875 0,0.9375 0.546875,1.59375 1.3125,1.59375 0.203125,0 0.703125,-0.046875 1.296875,-0.75 0.078125,0.421875 0.4375,0.75 0.90625,0.75 0.359375,0 0.578125,-0.234375 0.75,-0.546875 0.15625,-0.359375 0.296875,-0.96875 0.296875,-0.984375 0,-0.109375 -0.09375,-0.109375 -0.125,-0.109375 -0.09375,0 -0.109375,0.046875 -0.140625,0.1875 -0.171875,0.640625 -0.34375,1.234375 -0.75,1.234375 -0.28125,0 -0.296875,-0.265625 -0.296875,-0.453125 0,-0.25 0.015625,-0.3125 0.046875,-0.484375 z m -2.0625,5.625 C 3.015625,-1 3.015625,-0.984375 2.875,-0.8125 2.4375,-0.265625 2.03125,-0.109375 1.75,-0.109375 c -0.5,0 -0.640625,-0.546875 -0.640625,-0.9375 0,-0.5 0.3125,-1.71875 0.546875,-2.1875 0.3125,-0.578125 0.75,-0.953125 1.15625,-0.953125 0.640625,0 0.78125,0.8125 0.78125,0.875 0,0.0625 -0.015625,0.125 -0.03125,0.171875 z m 0,0"
           style="stroke:none;stroke-width:0"
           inkscape:connector-curvature="0" />
      </g>
    </g>
  </g>
  <g
     transform="matrix(0.705556,0,0,0.705556,-0.24759562,-30.959457)"
     ns1:version="0.10.2"
     ns1:texconverter="pdflatex"
     ns1:pdfconverter="pdf2svg"
     ns1:text="$q$\n$\\alpha$\n$\\beta$\n$\\hat{q}(\\delta)$\n$\\hat{d}(\\gamma)$"
     ns1:preamble="C:\\Users\\perei\\AppData\\Roaming\\inkscape\\extensions\\textext\\default_packages.tex"
     ns1:scale="2.0"
     ns1:alignment="middle center"
     ns1:jacobian_sqrt="0.705556"
     id="g26043">
    <g
       transform="translate(-0.4735087,3.5986662)"
       id="g26041">
      <g
         transform="translate(-109.21742,78.482321)"
         style="fill:#000000;fill-opacity:1"
         id="g25991">
        <path
           inkscape:connector-curvature="0"
           style="stroke:none;stroke-width:0"
           d="m 4.5,-4.296875 c 0,-0.046875 -0.03125,-0.09375 -0.09375,-0.09375 -0.109375,0 -0.515625,0.390625 -0.671875,0.6875 C 3.515625,-4.25 3.125,-4.40625 2.796875,-4.40625 c -1.171875,0 -2.390625,1.46875 -2.390625,2.921875 0,0.96875 0.578125,1.59375 1.3125,1.59375 0.421875,0 0.8125,-0.234375 1.171875,-0.59375 -0.09375,0.34375 -0.421875,1.6875 -0.453125,1.78125 -0.078125,0.28125 -0.15625,0.3125 -0.71875,0.328125 -0.125,0 -0.21875,0 -0.21875,0.203125 0,0 0,0.109375 0.125,0.109375 0.3125,0 0.671875,-0.03125 1,-0.03125 0.328125,0 0.6875,0.03125 1.03125,0.03125 0.046875,0 0.171875,0 0.171875,-0.203125 C 3.828125,1.625 3.734375,1.625 3.5625,1.625 3.09375,1.625 3.09375,1.5625 3.09375,1.46875 3.09375,1.390625 3.109375,1.328125 3.125,1.25 Z m -2.75,4.1875 c -0.609375,0 -0.640625,-0.765625 -0.640625,-0.9375 0,-0.484375 0.28125,-1.5625 0.453125,-1.984375 0.3125,-0.734375 0.828125,-1.15625 1.234375,-1.15625 0.65625,0 0.796875,0.8125 0.796875,0.875 0,0.0625 -0.546875,2.25 -0.578125,2.28125 C 2.859375,-0.75 2.296875,-0.109375 1.75,-0.109375 Z m 0,0"
           transform="translate(148.712,134.765)"
           id="path25989" />
      </g>
      <g
         transform="translate(75.779251,141.17639)"
         style="fill:#000000;fill-opacity:1"
         id="g25995">
        <path
           inkscape:connector-curvature="0"
           style="stroke:none;stroke-width:0"
           d="m 4.75,-2.359375 c 0,-1.5625 -0.921875,-2.046875 -1.65625,-2.046875 -1.375,0 -2.6875,1.421875 -2.6875,2.828125 0,0.9375 0.59375,1.6875 1.625,1.6875 0.625,0 1.34375,-0.234375 2.09375,-0.84375 0.125,0.53125 0.453125,0.84375 0.90625,0.84375 0.53125,0 0.84375,-0.546875 0.84375,-0.703125 0,-0.078125 -0.0625,-0.109375 -0.125,-0.109375 -0.0625,0 -0.09375,0.03125 -0.125,0.109375 -0.1875,0.484375 -0.546875,0.484375 -0.5625,0.484375 -0.3125,0 -0.3125,-0.78125 -0.3125,-1.015625 0,-0.203125 0,-0.234375 0.109375,-0.34375 C 5.796875,-2.65625 6,-3.8125 6,-3.8125 6,-3.84375 5.984375,-3.921875 5.875,-3.921875 c -0.09375,0 -0.09375,0.03125 -0.140625,0.21875 -0.1875,0.625 -0.515625,1.375 -0.984375,1.96875 z m -0.65625,1.375 c -0.890625,0.765625 -1.65625,0.875 -2.046875,0.875 -0.59375,0 -0.90625,-0.453125 -0.90625,-1.09375 0,-0.484375 0.265625,-1.5625 0.578125,-2.0625 C 2.1875,-4 2.734375,-4.1875 3.078125,-4.1875 c 0.984375,0 0.984375,1.3125 0.984375,2.078125 0,0.375 0,0.953125 0.03125,1.125 z m 0,0"
           transform="translate(156.8355,134.765)"
           id="path25993" />
      </g>
      <g
         transform="translate(-49.113917,22.581296)"
         style="fill:#000000;fill-opacity:1"
         id="g25999">
        <path
           inkscape:connector-curvature="0"
           style="stroke:none;stroke-width:0"
           d="m 5.734375,-5.671875 c 0,-0.75 -0.546875,-1.359375 -1.359375,-1.359375 -0.578125,0 -0.859375,0.15625 -1.203125,0.40625 C 2.625,-6.21875 2.078125,-5.25 1.890625,-4.5 L 0.296875,1.828125 C 0.296875,1.875 0.34375,1.9375 0.421875,1.9375 0.5,1.9375 0.53125,1.90625 0.53125,1.890625 L 1.234375,-0.875 c 0.1875,0.609375 0.625,0.96875 1.359375,0.96875 C 3.3125,0.09375 4.0625,-0.25 4.515625,-0.6875 5,-1.140625 5.3125,-1.78125 5.3125,-2.515625 c 0,-0.71875 -0.375,-1.25 -0.734375,-1.484375 0.578125,-0.34375 1.15625,-0.953125 1.15625,-1.671875 z M 3.9375,-4.015625 c -0.125,0.046875 -0.234375,0.0625 -0.484375,0.0625 -0.140625,0 -0.328125,0.015625 -0.4375,-0.03125 0.03125,-0.109375 0.390625,-0.078125 0.5,-0.078125 0.203125,0 0.296875,0 0.421875,0.046875 z M 5.171875,-5.90625 c 0,0.703125 -0.375,1.421875 -0.890625,1.734375 C 4,-4.28125 3.8125,-4.296875 3.515625,-4.296875 c -0.21875,0 -0.78125,-0.015625 -0.78125,0.3125 0,0.28125 0.515625,0.25 0.6875,0.25 0.375,0 0.53125,0 0.828125,-0.125 0.375,0.359375 0.421875,0.671875 0.4375,1.125 0.015625,0.578125 -0.21875,1.328125 -0.5,1.71875 C 3.796875,-0.484375 3.125,-0.125 2.5625,-0.125 c -0.765625,0 -1.140625,-0.578125 -1.140625,-1.28125 0,-0.09375 0,-0.25 0.046875,-0.4375 L 2.109375,-4.359375 C 2.328125,-5.21875 3.046875,-6.8125 4.25,-6.8125 c 0.578125,0 0.921875,0.3125 0.921875,0.90625 z m 0,0"
           transform="translate(166.56597,134.765)"
           id="path25997" />
      </g>
      <g
         transform="translate(-128.32086,39.490626)"
         style="fill:#000000;fill-opacity:1"
         id="g26003">
        <path
           inkscape:connector-curvature="0"
           style="stroke:none;stroke-width:0"
           d="M 2.5,-6.921875 1.15625,-5.5625 1.328125,-5.390625 2.5,-6.40625 3.640625,-5.390625 3.8125,-5.5625 Z m 0,0"
           transform="translate(176.793,134.765)"
           id="path26001" />
      </g>
      <g
         transform="translate(-128.32086,39.490626)"
         style="fill:#000000;fill-opacity:1"
         id="g26007">
        <path
           inkscape:connector-curvature="0"
           style="stroke:none;stroke-width:0"
           d="m 4.5,-4.296875 c 0,-0.046875 -0.03125,-0.09375 -0.09375,-0.09375 -0.109375,0 -0.515625,0.390625 -0.671875,0.6875 C 3.515625,-4.25 3.125,-4.40625 2.796875,-4.40625 c -1.171875,0 -2.390625,1.46875 -2.390625,2.921875 0,0.96875 0.578125,1.59375 1.3125,1.59375 0.421875,0 0.8125,-0.234375 1.171875,-0.59375 -0.09375,0.34375 -0.421875,1.6875 -0.453125,1.78125 -0.078125,0.28125 -0.15625,0.3125 -0.71875,0.328125 -0.125,0 -0.21875,0 -0.21875,0.203125 0,0 0,0.109375 0.125,0.109375 0.3125,0 0.671875,-0.03125 1,-0.03125 0.328125,0 0.6875,0.03125 1.03125,0.03125 0.046875,0 0.171875,0 0.171875,-0.203125 C 3.828125,1.625 3.734375,1.625 3.5625,1.625 3.09375,1.625 3.09375,1.5625 3.09375,1.46875 3.09375,1.390625 3.109375,1.328125 3.125,1.25 Z m -2.75,4.1875 c -0.609375,0 -0.640625,-0.765625 -0.640625,-0.9375 0,-0.484375 0.28125,-1.5625 0.453125,-1.984375 0.3125,-0.734375 0.828125,-1.15625 1.234375,-1.15625 0.65625,0 0.796875,0.8125 0.796875,0.875 0,0.0625 -0.546875,2.25 -0.578125,2.28125 C 2.859375,-0.75 2.296875,-0.109375 1.75,-0.109375 Z m 0,0"
           transform="translate(176.051,134.765)"
           id="path26005" />
      </g>
      <g
         transform="translate(-128.32086,39.490626)"
         style="fill:#000000;fill-opacity:1"
         id="g26011">
        <path
           inkscape:connector-curvature="0"
           style="stroke:none;stroke-width:0"
           d="m 3.296875,2.390625 c 0,-0.03125 0,-0.046875 -0.171875,-0.21875 C 1.890625,0.921875 1.5625,-0.96875 1.5625,-2.5 c 0,-1.734375 0.375,-3.46875 1.609375,-4.703125 0.125,-0.125 0.125,-0.140625 0.125,-0.171875 0,-0.078125 -0.03125,-0.109375 -0.09375,-0.109375 -0.109375,0 -1,0.6875 -1.59375,1.953125 -0.5,1.09375 -0.625,2.203125 -0.625,3.03125 0,0.78125 0.109375,1.984375 0.65625,3.125 C 2.25,1.84375 3.09375,2.5 3.203125,2.5 c 0.0625,0 0.09375,-0.03125 0.09375,-0.109375 z m 0,0"
           transform="translate(180.856,134.765)"
           id="path26009" />
      </g>
      <g
         transform="translate(-128.32086,39.490626)"
         style="fill:#000000;fill-opacity:1"
         id="g26015">
        <path
           inkscape:connector-curvature="0"
           style="stroke:none;stroke-width:0"
           d="M 2.625,-4.359375 C 1.390625,-4.0625 0.421875,-2.765625 0.421875,-1.5625 0.421875,-0.59375 1.0625,0.125 2,0.125 c 1.15625,0 1.984375,-1.578125 1.984375,-2.953125 0,-0.90625 -0.390625,-1.40625 -0.734375,-1.84375 C 2.890625,-5.125 2.296875,-5.875 2.296875,-6.3125 c 0,-0.21875 0.203125,-0.453125 0.546875,-0.453125 0.3125,0 0.5,0.125 0.71875,0.265625 0.203125,0.125 0.390625,0.25 0.546875,0.25 C 4.359375,-6.25 4.5,-6.484375 4.5,-6.65625 4.5,-6.875 4.34375,-6.890625 3.984375,-6.984375 3.46875,-7.09375 3.328125,-7.09375 3.171875,-7.09375 c -0.78125,0 -1.140625,0.4375 -1.140625,1.03125 0,0.546875 0.296875,1.09375 0.59375,1.703125 z m 0.125,0.21875 c 0.25,0.46875 0.546875,1 0.546875,1.71875 0,0.65625 -0.375,2.328125 -1.296875,2.328125 -0.546875,0 -0.96875,-0.421875 -0.96875,-1.1875 0,-0.625 0.375,-2.5 1.71875,-2.859375 z m 0,0"
           transform="translate(184.73,134.765)"
           id="path26013" />
      </g>
      <g
         transform="translate(-128.32086,39.490626)"
         style="fill:#000000;fill-opacity:1"
         id="g26019">
        <path
           inkscape:connector-curvature="0"
           style="stroke:none;stroke-width:0"
           d="m 2.875,-2.5 c 0,-0.765625 -0.109375,-1.96875 -0.65625,-3.109375 -0.59375,-1.21875 -1.453125,-1.875 -1.546875,-1.875 -0.0625,0 -0.109375,0.046875 -0.109375,0.109375 0,0.03125 0,0.046875 0.1875,0.234375 0.984375,0.984375 1.546875,2.5625 1.546875,4.640625 0,1.71875 -0.359375,3.46875 -1.59375,4.71875 C 0.5625,2.34375 0.5625,2.359375 0.5625,2.390625 0.5625,2.453125 0.609375,2.5 0.671875,2.5 0.765625,2.5 1.671875,1.8125 2.25,0.546875 2.765625,-0.546875 2.875,-1.65625 2.875,-2.5 Z m 0,0"
           transform="translate(189.535,134.765)"
           id="path26017" />
      </g>
      <g
         transform="translate(24.318932,79.640829)"
         style="fill:#000000;fill-opacity:1"
         id="g26023">
        <path
           inkscape:connector-curvature="0"
           style="stroke:none;stroke-width:0"
           d="M 2.5,-6.921875 1.15625,-5.5625 1.328125,-5.390625 2.5,-6.40625 3.640625,-5.390625 3.8125,-5.5625 Z m 0,0"
           transform="translate(198.493,132.136)"
           id="path26021" />
      </g>
      <g
         transform="translate(24.318932,79.640829)"
         style="fill:#000000;fill-opacity:1"
         id="g26027">
        <path
           inkscape:connector-curvature="0"
           style="stroke:none;stroke-width:0"
           d="m 5.140625,-6.8125 c 0,0 0,-0.109375 -0.125,-0.109375 -0.15625,0 -1.09375,0.09375 -1.265625,0.109375 -0.078125,0.015625 -0.140625,0.0625 -0.140625,0.1875 0,0.125 0.09375,0.125 0.234375,0.125 0.484375,0 0.5,0.0625 0.5,0.171875 L 4.3125,-6.125 3.71875,-3.765625 C 3.53125,-4.140625 3.25,-4.40625 2.796875,-4.40625 c -1.15625,0 -2.390625,1.46875 -2.390625,2.921875 0,0.9375 0.546875,1.59375 1.3125,1.59375 0.203125,0 0.703125,-0.046875 1.296875,-0.75 0.078125,0.421875 0.4375,0.75 0.90625,0.75 0.359375,0 0.578125,-0.234375 0.75,-0.546875 0.15625,-0.359375 0.296875,-0.96875 0.296875,-0.984375 0,-0.109375 -0.09375,-0.109375 -0.125,-0.109375 -0.09375,0 -0.109375,0.046875 -0.140625,0.1875 -0.171875,0.640625 -0.34375,1.234375 -0.75,1.234375 -0.28125,0 -0.296875,-0.265625 -0.296875,-0.453125 0,-0.25 0.015625,-0.3125 0.046875,-0.484375 z m -2.0625,5.625 C 3.015625,-1 3.015625,-0.984375 2.875,-0.8125 2.4375,-0.265625 2.03125,-0.109375 1.75,-0.109375 c -0.5,0 -0.640625,-0.546875 -0.640625,-0.9375 0,-0.5 0.3125,-1.71875 0.546875,-2.1875 0.3125,-0.578125 0.75,-0.953125 1.15625,-0.953125 0.640625,0 0.78125,0.8125 0.78125,0.875 0,0.0625 -0.015625,0.125 -0.03125,0.171875 z m 0,0"
           transform="translate(196.73,134.765)"
           id="path26025" />
      </g>
      <g
         transform="translate(24.318932,79.640829)"
         style="fill:#000000;fill-opacity:1"
         id="g26031">
        <path
           inkscape:connector-curvature="0"
           style="stroke:none;stroke-width:0"
           d="m 3.296875,2.390625 c 0,-0.03125 0,-0.046875 -0.171875,-0.21875 C 1.890625,0.921875 1.5625,-0.96875 1.5625,-2.5 c 0,-1.734375 0.375,-3.46875 1.609375,-4.703125 0.125,-0.125 0.125,-0.140625 0.125,-0.171875 0,-0.078125 -0.03125,-0.109375 -0.09375,-0.109375 -0.109375,0 -1,0.6875 -1.59375,1.953125 -0.5,1.09375 -0.625,2.203125 -0.625,3.03125 0,0.78125 0.109375,1.984375 0.65625,3.125 C 2.25,1.84375 3.09375,2.5 3.203125,2.5 c 0.0625,0 0.09375,-0.03125 0.09375,-0.109375 z m 0,0"
           transform="translate(201.916,134.765)"
           id="path26029" />
      </g>
      <g
         transform="translate(24.318932,79.640829)"
         style="fill:#000000;fill-opacity:1"
         id="g26035">
        <path
           inkscape:connector-curvature="0"
           style="stroke:none;stroke-width:0"
           d="M 0.40625,-2.53125 C 0.796875,-3.671875 1.890625,-3.6875 2,-3.6875 c 1.5,0 1.609375,1.75 1.609375,2.53125 0,0.609375 -0.046875,0.78125 -0.125,0.984375 -0.21875,0.71875 -0.515625,1.875 -0.515625,2.140625 0,0.109375 0.046875,0.171875 0.125,0.171875 0.140625,0 0.21875,-0.21875 0.328125,-0.59375 C 3.65625,0.703125 3.75,0.140625 3.78125,-0.171875 c 0.03125,-0.125 0.046875,-0.25 0.09375,-0.390625 0.3125,-0.984375 0.953125,-2.46875 1.34375,-3.25 0.078125,-0.125 0.1875,-0.34375 0.1875,-0.390625 0,-0.09375 -0.09375,-0.09375 -0.109375,-0.09375 -0.03125,0 -0.09375,0 -0.125,0.0625 C 4.65625,-3.28125 4.25,-2.28125 3.859375,-1.28125 3.84375,-1.578125 3.84375,-2.34375 3.453125,-3.3125 3.203125,-3.921875 2.8125,-4.40625 2.125,-4.40625 c -1.25,0 -1.953125,1.515625 -1.953125,1.828125 0,0.09375 0.09375,0.09375 0.203125,0.09375 z m 0,0"
           transform="translate(205.79,134.765)"
           id="path26033" />
      </g>
      <g
         transform="translate(24.318932,79.640829)"
         style="fill:#000000;fill-opacity:1"
         id="g26039">
        <path
           inkscape:connector-curvature="0"
           style="stroke:none;stroke-width:0"
           d="m 2.875,-2.5 c 0,-0.765625 -0.109375,-1.96875 -0.65625,-3.109375 -0.59375,-1.21875 -1.453125,-1.875 -1.546875,-1.875 -0.0625,0 -0.109375,0.046875 -0.109375,0.109375 0,0.03125 0,0.046875 0.1875,0.234375 0.984375,0.984375 1.546875,2.5625 1.546875,4.640625 0,1.71875 -0.359375,3.46875 -1.59375,4.71875 C 0.5625,2.34375 0.5625,2.359375 0.5625,2.390625 0.5625,2.453125 0.609375,2.5 0.671875,2.5 0.765625,2.5 1.671875,1.8125 2.25,0.546875 2.765625,-0.546875 2.875,-1.65625 2.875,-2.5 Z m 0,0"
           transform="translate(211.501,134.765)"
           id="path26037" />
      </g>
      <g
         id="g26167"
         ns1:jacobian_sqrt="0.705556"
         ns1:alignment="middle center"
         ns1:scale="2.0"
         ns1:preamble="C:\\Users\\perei\\AppData\\Roaming\\inkscape\\extensions\\textext\\default_packages.tex"
         ns1:text="$\\omega_r$"
         ns1:pdfconverter="pdf2svg"
         ns1:texconverter="pdflatex"
         ns1:version="0.10.2"
         transform="matrix(0.705556,0,0,0.705556,87.914636,85.189343)">
        <g
           id="g26165">
          <g
             id="g26159"
             style="fill:#000000;fill-opacity:1">
            <path
               id="path26157"
               transform="translate(148.712,134.765)"
               d="m 6.03125,-3.703125 c 0,-0.453125 -0.171875,-0.703125 -0.40625,-0.703125 -0.25,0 -0.515625,0.234375 -0.515625,0.46875 0,0.09375 0.046875,0.203125 0.140625,0.296875 0.171875,0.15625 0.359375,0.421875 0.359375,0.84375 0,0.390625 -0.203125,0.96875 -0.5,1.421875 C 4.8125,-0.953125 4.4375,-0.609375 3.96875,-0.609375 3.40625,-0.609375 3.09375,-0.96875 3,-1.5 c 0.109375,-0.265625 0.34375,-0.90625 0.34375,-1.1875 0,-0.109375 -0.046875,-0.21875 -0.1875,-0.21875 -0.078125,0 -0.1875,0.03125 -0.265625,0.171875 C 2.78125,-2.53125 2.65625,-1.890625 2.65625,-1.53125 2.328125,-1.0625 1.9375,-0.609375 1.3125,-0.609375 c -0.671875,0 -0.875,-0.59375 -0.875,-1.140625 0,-1.25 1.015625,-2.296875 1.015625,-2.421875 0,-0.109375 -0.078125,-0.1875 -0.1875,-0.1875 -0.125,0 -0.203125,0.125 -0.265625,0.21875 -0.5,0.734375 -0.875,1.921875 -0.875,2.828125 0,0.6875 0.21875,1.421875 1.046875,1.421875 0.703125,0 1.171875,-0.5 1.53125,-1.046875 0.09375,0.578125 0.484375,1.046875 1.09375,1.046875 0.78125,0 1.25,-0.609375 1.609375,-1.359375 0.25,-0.484375 0.625,-1.84375 0.625,-2.453125 z m 0,0"
               style="stroke:none;stroke-width:0"
               inkscape:connector-curvature="0" />
          </g>
          <g
             id="g26163"
             style="fill:#000000;fill-opacity:1">
            <path
               id="path26161"
               transform="translate(154.914,136.259)"
               d="m 1.640625,-1.40625 c 0,-0.046875 0.171875,-0.671875 0.171875,-0.703125 0.015625,-0.0625 0.21875,-0.40625 0.453125,-0.578125 0.0625,-0.046875 0.25,-0.1875 0.5625,-0.1875 0.0625,0 0.234375,0 0.375,0.09375 -0.21875,0.0625 -0.296875,0.265625 -0.296875,0.390625 0,0.140625 0.109375,0.25 0.265625,0.25 0.171875,0 0.390625,-0.125 0.390625,-0.421875 0,-0.359375 -0.375,-0.515625 -0.734375,-0.515625 -0.359375,0 -0.671875,0.15625 -0.984375,0.5 -0.125,-0.421875 -0.546875,-0.5 -0.71875,-0.5 -0.25,0 -0.421875,0.171875 -0.546875,0.359375 -0.15625,0.265625 -0.25,0.671875 -0.25,0.71875 0,0.078125 0.09375,0.078125 0.125,0.078125 0.09375,0 0.09375,-0.015625 0.140625,-0.203125 0.109375,-0.421875 0.25,-0.75 0.515625,-0.75 0.1875,0 0.234375,0.15625 0.234375,0.34375 0,0.125 -0.0625,0.390625 -0.125,0.578125 -0.046875,0.1875 -0.109375,0.46875 -0.140625,0.625 L 0.84375,-0.4375 C 0.828125,-0.34375 0.78125,-0.171875 0.78125,-0.15625 0.78125,0 0.90625,0.0625 1.015625,0.0625 1.125,0.0625 1.265625,0 1.3125,-0.125 1.328125,-0.171875 1.40625,-0.484375 1.453125,-0.65625 Z m 0,0"
               style="stroke:none;stroke-width:0"
               inkscape:connector-curvature="0" />
          </g>
        </g>
      </g>
    </g>
    <path
       style="fill:none;stroke:#009800;stroke-width:0.6590547;stroke-linecap:butt;stroke-linejoin:miter;stroke-miterlimit:4;stroke-dasharray:none;stroke-opacity:1;marker-end:url(#marker24694)"
       d="M 120.25739,284.86568 173.05989,165.5807"
       id="path26248"
       inkscape:connector-curvature="0" />
    <path
       style="fill:none;stroke:#ff0000;stroke-width:0.94251909;stroke-linecap:butt;stroke-linejoin:miter;stroke-opacity:1;stroke-miterlimit:4;stroke-dasharray:none;marker-end:url(#Arrow1Mend)"
       d="M 120.35085,284.82425 178.769,247.57833"
       id="path26676"
       inkscape:connector-curvature="0" />
  </g>
  <g
     id="g27539"
     ns1:jacobian_sqrt="0.705556"
     ns1:alignment="middle center"
     ns1:scale="2.0"
     ns1:preamble="C:\\Users\\perei\\AppData\\Roaming\\inkscape\\extensions\\textext\\default_packages.tex"
     ns1:text="$\\bar{V}_{inj}$"
     ns1:pdfconverter="pdf2svg"
     ns1:texconverter="pdflatex"
     ns1:version="0.10.2"
     transform="matrix(0.705556,0,0,0.705556,20.487057,56.192274)"
     style="stroke:none;stroke-opacity:1;fill:#ff0000;fill-opacity:1">
    <g
       id="g27537"
       style="stroke:none;stroke-opacity:1;fill:#ff0000;fill-opacity:1">
      <g
         id="g27523"
         style="fill:#ff0000;fill-opacity:1;stroke:none;stroke-opacity:1">
        <path
           id="path27521"
           transform="translate(150.234,132.246)"
           d="M 4.28125,-5.578125 V -5.875 H 0.6875 v 0.296875 z m 0,0"
           style="stroke:none;stroke-width:0;stroke-opacity:1;fill:#ff0000;fill-opacity:1"
           inkscape:connector-curvature="0" />
      </g>
      <g
         id="g27527"
         style="fill:#ff0000;fill-opacity:1;stroke:none;stroke-opacity:1">
        <path
           id="path27525"
           transform="translate(148.712,134.765)"
           d="M 6.265625,-5.671875 C 6.75,-6.453125 7.171875,-6.484375 7.53125,-6.5 c 0.125,-0.015625 0.140625,-0.171875 0.140625,-0.1875 0,-0.078125 -0.0625,-0.125 -0.140625,-0.125 -0.25,0 -0.546875,0.03125 -0.8125,0.03125 -0.328125,0 -0.671875,-0.03125 -0.984375,-0.03125 -0.0625,0 -0.1875,0 -0.1875,0.1875 0,0.109375 0.078125,0.125 0.15625,0.125 0.265625,0.015625 0.453125,0.125 0.453125,0.328125 0,0.15625 -0.140625,0.375 -0.140625,0.375 l -3.0625,4.875 -0.6875,-5.28125 C 2.265625,-6.375 2.5,-6.5 2.953125,-6.5 c 0.140625,0 0.25,0 0.25,-0.203125 0,-0.078125 -0.078125,-0.109375 -0.125,-0.109375 -0.40625,0 -0.828125,0.03125 -1.25,0.03125 -0.171875,0 -0.359375,0 -0.546875,0 -0.171875,0 -0.359375,-0.03125 -0.53125,-0.03125 -0.078125,0 -0.1875,0 -0.1875,0.1875 0,0.125 0.078125,0.125 0.25,0.125 0.546875,0 0.5625,0.09375 0.59375,0.34375 L 2.1875,-0.015625 C 2.21875,0.1875 2.265625,0.21875 2.390625,0.21875 c 0.15625,0 0.203125,-0.046875 0.28125,-0.171875 z m 0,0"
           style="stroke:none;stroke-width:0;stroke-opacity:1;fill:#ff0000;fill-opacity:1"
           inkscape:connector-curvature="0" />
      </g>
      <g
         id="g27535"
         style="fill:#ff0000;fill-opacity:1;stroke:none;stroke-opacity:1">
        <path
           id="path27529"
           transform="translate(154.524,136.259)"
           d="m 2.265625,-4.359375 c 0,-0.109375 -0.09375,-0.265625 -0.28125,-0.265625 -0.1875,0 -0.390625,0.1875 -0.390625,0.390625 0,0.109375 0.078125,0.265625 0.28125,0.265625 0.1875,0 0.390625,-0.203125 0.390625,-0.390625 z M 0.84375,-0.8125 c -0.03125,0.09375 -0.0625,0.171875 -0.0625,0.296875 0,0.328125 0.265625,0.578125 0.65625,0.578125 0.6875,0 1,-0.953125 1,-1.0625 0,-0.09375 -0.09375,-0.09375 -0.109375,-0.09375 -0.09375,0 -0.109375,0.046875 -0.140625,0.125 -0.15625,0.5625 -0.453125,0.84375 -0.734375,0.84375 -0.140625,0 -0.171875,-0.09375 -0.171875,-0.25 0,-0.15625 0.046875,-0.28125 0.109375,-0.4375 C 1.46875,-1 1.546875,-1.1875 1.609375,-1.375 1.671875,-1.546875 1.9375,-2.171875 1.953125,-2.265625 1.984375,-2.328125 2,-2.40625 2,-2.484375 2,-2.8125 1.71875,-3.078125 1.34375,-3.078125 0.640625,-3.078125 0.328125,-2.125 0.328125,-2 c 0,0.078125 0.09375,0.078125 0.125,0.078125 0.09375,0 0.09375,-0.03125 0.125,-0.109375 C 0.75,-2.625 1.0625,-2.875 1.3125,-2.875 c 0.109375,0 0.171875,0.046875 0.171875,0.234375 0,0.171875 -0.03125,0.265625 -0.203125,0.703125 z m 0,0"
           style="stroke:none;stroke-width:0;stroke-opacity:1;fill:#ff0000;fill-opacity:1"
           inkscape:connector-curvature="0" />
        <path
           id="path27531"
           transform="translate(157.34281,136.259)"
           d="m 0.84375,-0.4375 c -0.015625,0.09375 -0.0625,0.265625 -0.0625,0.28125 0,0.15625 0.125,0.21875 0.234375,0.21875 0.125,0 0.234375,-0.078125 0.28125,-0.140625 0.03125,-0.0625 0.078125,-0.296875 0.125,-0.4375 0.03125,-0.125 0.109375,-0.453125 0.140625,-0.625 0.046875,-0.15625 0.09375,-0.3125 0.125,-0.46875 0.078125,-0.28125 0.09375,-0.34375 0.296875,-0.625 C 2.171875,-2.515625 2.5,-2.875 3.03125,-2.875 c 0.390625,0 0.40625,0.359375 0.40625,0.484375 0,0.421875 -0.296875,1.1875 -0.40625,1.484375 -0.078125,0.203125 -0.109375,0.265625 -0.109375,0.375 0,0.375 0.296875,0.59375 0.65625,0.59375 0.703125,0 1,-0.953125 1,-1.0625 0,-0.09375 -0.078125,-0.09375 -0.109375,-0.09375 -0.09375,0 -0.09375,0.046875 -0.125,0.125 C 4.1875,-0.40625 3.875,-0.125 3.609375,-0.125 c -0.15625,0 -0.1875,-0.09375 -0.1875,-0.25 0,-0.15625 0.046875,-0.25 0.171875,-0.5625 0.078125,-0.21875 0.359375,-0.953125 0.359375,-1.34375 0,-0.671875 -0.53125,-0.796875 -0.90625,-0.796875 -0.578125,0 -0.96875,0.359375 -1.171875,0.640625 -0.046875,-0.484375 -0.453125,-0.640625 -0.75,-0.640625 -0.296875,0 -0.453125,0.21875 -0.546875,0.375 -0.15625,0.265625 -0.25,0.65625 -0.25,0.703125 0,0.078125 0.09375,0.078125 0.125,0.078125 0.09375,0 0.09375,-0.015625 0.140625,-0.203125 0.109375,-0.40625 0.25,-0.75 0.515625,-0.75 0.1875,0 0.234375,0.15625 0.234375,0.34375 0,0.125 -0.0625,0.390625 -0.125,0.578125 -0.046875,0.1875 -0.109375,0.46875 -0.140625,0.625 z m 0,0"
           style="stroke:none;stroke-width:0;stroke-opacity:1;fill:#ff0000;fill-opacity:1"
           inkscape:connector-curvature="0" />
        <path
           id="path27533"
           transform="translate(162.26771,136.259)"
           d="M 3.0625,-4.359375 C 3.0625,-4.46875 2.96875,-4.625 2.78125,-4.625 c -0.203125,0 -0.390625,0.203125 -0.390625,0.390625 0,0.109375 0.078125,0.265625 0.28125,0.265625 0.1875,0 0.390625,-0.1875 0.390625,-0.390625 z M 1.578125,0.34375 C 1.46875,0.828125 1.09375,1.21875 0.6875,1.21875 c -0.09375,0 -0.171875,0 -0.25,-0.03125 0.171875,-0.09375 0.234375,-0.25 0.234375,-0.359375 0,-0.171875 -0.140625,-0.25 -0.28125,-0.25 C 0.1875,0.578125 0,0.765625 0,0.984375 c 0,0.265625 0.265625,0.4375 0.6875,0.4375 0.421875,0 1.234375,-0.25 1.453125,-1.09375 l 0.625,-2.5 c 0.015625,-0.078125 0.03125,-0.140625 0.03125,-0.25 0,-0.375 -0.328125,-0.65625 -0.734375,-0.65625 -0.78125,0 -1.21875,0.96875 -1.21875,1.078125 0,0.078125 0.09375,0.078125 0.109375,0.078125 0.078125,0 0.09375,-0.015625 0.140625,-0.125 C 1.265625,-2.453125 1.625,-2.875 2.03125,-2.875 c 0.171875,0 0.234375,0.109375 0.234375,0.34375 0,0.078125 0,0.171875 -0.015625,0.203125 z m 0,0"
           style="stroke:none;stroke-width:0;stroke-opacity:1;fill:#ff0000;fill-opacity:1"
           inkscape:connector-curvature="0" />
      </g>
    </g>
  </g>
  <path
     style="fill:none;fill-opacity:1;stroke:#000000;stroke-width:0.66499996;stroke-linecap:square;stroke-linejoin:miter;stroke-miterlimit:4;stroke-dasharray:none;stroke-dashoffset:0;stroke-opacity:1"
     id="path27654"
     sodipodi:type="arc"
     sodipodi:cx="84.666664"
     sodipodi:cy="170"
     sodipodi:rx="14.2686"
     sodipodi:ry="13.796141"
     sodipodi:start="5.7476452"
     sodipodi:end="6.2583212"
     d="m 96.937563,162.95975 a 14.2686,13.796141 0 0 1 1.993291,6.69726"
     sodipodi:open="true" />
  <path
     style="fill:none;fill-opacity:1;stroke:#000000;stroke-width:0.66499996;stroke-linecap:square;stroke-linejoin:miter;stroke-miterlimit:4;stroke-dasharray:none;stroke-dashoffset:0;stroke-opacity:1"
     id="path27654-8"
     sodipodi:type="arc"
     sodipodi:cx="86.745529"
     sodipodi:cy="167.96838"
     sodipodi:rx="16.158482"
     sodipodi:ry="16.01675"
     sodipodi:start="5.532418"
     sodipodi:end="5.7084417"
     d="m 98.560056,157.04176 a 16.158482,16.01675 0 0 1 1.747804,2.2196"
     sodipodi:open="true" />
  <path
     style="fill:none;fill-opacity:1;stroke:#000000;stroke-width:0.66499996;stroke-linecap:square;stroke-linejoin:miter;stroke-miterlimit:4;stroke-dasharray:none;stroke-dashoffset:0;stroke-opacity:1"
     id="path27654-8-9"
     sodipodi:type="arc"
     sodipodi:cx="84.666672"
     sodipodi:cy="170"
     sodipodi:rx="23.434536"
     sodipodi:ry="24.712282"
     sodipodi:start="5.5520422"
     sodipodi:end="6.2707384"
     d="m 102.11161,153.49909 a 23.434536,24.712282 0 0 1 5.98778,16.19333"
     sodipodi:open="true" />
  <g
     transform="matrix(0.705556,0,0,0.705556,-10.933975,95.257336)"
     ns1:version="0.10.2"
     ns1:texconverter="pdflatex"
     ns1:pdfconverter="pdf2svg"
     ns1:text="$\\hat{\\theta}_r$\n$\\tilde{\\theta}_r$\n$\\theta_r$"
     ns1:preamble="C:\\Users\\perei\\AppData\\Roaming\\inkscape\\extensions\\textext\\default_packages.tex"
     ns1:scale="2.0"
     ns1:alignment="middle center"
     ns1:jacobian_sqrt="0.705556"
     id="g27819">
    <g
       id="g27817">
      <g
         style="fill:#000000;fill-opacity:1"
         id="g27787">
        <path
           inkscape:connector-curvature="0"
           style="stroke:none;stroke-width:0"
           d="m 149.61829,107.80342 -1.34375,1.35938 0.17187,0.17187 1.17188,-1.01562 1.14062,1.01562 0.17188,-0.17187 z m 0,0"
           id="path27785" />
      </g>
      <g
         style="fill:#000000;fill-opacity:1"
         id="g27791">
        <path
           inkscape:connector-curvature="0"
           style="stroke:none;stroke-width:0"
           d="m 150.83254,112.36992 c 0,-0.65625 -0.17188,-2.04687 -1.1875,-2.04687 -1.39063,0 -2.92188,2.8125 -2.92188,5.09375 0,0.9375 0.28125,2.04687 1.1875,2.04687 1.40625,0 2.92188,-2.85937 2.92188,-5.09375 z m -3.0625,1.35938 c 0.17187,-0.625 0.375,-1.42188 0.78125,-2.14063 0.26562,-0.48437 0.625,-1.04687 1.07812,-1.04687 0.48438,0 0.54688,0.64062 0.54688,1.20312 0,0.5 -0.0781,1 -0.3125,1.98438 z m 2,0.32812 c -0.10938,0.45313 -0.3125,1.29688 -0.70313,2.01563 -0.34375,0.6875 -0.71875,1.17187 -1.15625,1.17187 -0.32812,0 -0.53125,-0.29687 -0.53125,-1.21875 0,-0.42187 0.0625,-1 0.3125,-1.96875 z m 0,0"
           id="path27789" />
      </g>
      <g
         style="fill:#000000;fill-opacity:1"
         id="g27795">
        <path
           inkscape:connector-curvature="0"
           style="stroke:none;stroke-width:0"
           d="m 152.61891,117.44205 c 0,-0.0469 0.17188,-0.67188 0.17188,-0.70313 0.0156,-0.0625 0.21875,-0.40625 0.45312,-0.57812 0.0625,-0.0469 0.25,-0.1875 0.5625,-0.1875 0.0625,0 0.23438,0 0.375,0.0937 -0.21875,0.0625 -0.29687,0.26562 -0.29687,0.39062 0,0.14063 0.10937,0.25 0.26562,0.25 0.17188,0 0.39063,-0.125 0.39063,-0.42187 0,-0.35938 -0.375,-0.51563 -0.73438,-0.51563 -0.35937,0 -0.67187,0.15625 -0.98437,0.5 -0.125,-0.42187 -0.54688,-0.5 -0.71875,-0.5 -0.25,0 -0.42188,0.17188 -0.54688,0.35938 -0.15625,0.26562 -0.25,0.67187 -0.25,0.71875 0,0.0781 0.0937,0.0781 0.125,0.0781 0.0937,0 0.0937,-0.0156 0.14063,-0.20312 0.10937,-0.42188 0.25,-0.75 0.51562,-0.75 0.1875,0 0.23438,0.15625 0.23438,0.34375 0,0.125 -0.0625,0.39062 -0.125,0.57812 -0.0469,0.1875 -0.10938,0.46875 -0.14063,0.625 l -0.23437,0.89063 c -0.0156,0.0937 -0.0625,0.26562 -0.0625,0.28125 0,0.15625 0.125,0.21875 0.23437,0.21875 0.10938,0 0.25,-0.0625 0.29688,-0.1875 0.0156,-0.0469 0.0937,-0.35938 0.14062,-0.53125 z m 0,0"
           id="path27793" />
      </g>
      <g
         style="fill:#000000;fill-opacity:1"
         id="g27799">
        <path
           inkscape:connector-curvature="0"
           style="stroke:none;stroke-width:0"
           d="m 153.35542,74.325764 -0.15625,-0.140625 c 0,0 -0.375,0.46875 -0.8125,0.46875 -0.23438,0 -0.48438,-0.140625 -0.65625,-0.25 -0.26563,-0.15625 -0.4375,-0.21875 -0.60938,-0.21875 -0.375,0 -0.57812,0.21875 -1.07812,0.78125 l 0.15625,0.140625 c 0,0 0.375,-0.46875 0.8125,-0.46875 0.23437,0 0.48437,0.140625 0.65625,0.234375 0.26562,0.171875 0.45312,0.234375 0.625,0.234375 0.375,0 0.5625,-0.21875 1.0625,-0.78125 z m 0,0"
           id="path27797" />
      </g>
      <g
         style="fill:#000000;fill-opacity:1"
         id="g27803">
        <path
           inkscape:connector-curvature="0"
           style="stroke:none;stroke-width:0"
           d="m 152.93004,78.486014 c 0,-0.65625 -0.17187,-2.046875 -1.1875,-2.046875 -1.39062,0 -2.92187,2.8125 -2.92187,5.09375 0,0.9375 0.28125,2.046875 1.1875,2.046875 1.40625,0 2.92187,-2.859375 2.92187,-5.09375 z m -3.0625,1.359375 c 0.17188,-0.625 0.375,-1.421875 0.78125,-2.140625 0.26563,-0.484375 0.625,-1.046875 1.07813,-1.046875 0.48437,0 0.54687,0.640625 0.54687,1.203125 0,0.5 -0.0781,1 -0.3125,1.984375 z m 2,0.328125 c -0.10937,0.453125 -0.3125,1.296875 -0.70312,2.015625 -0.34375,0.6875 -0.71875,1.171875 -1.15625,1.171875 -0.32813,0 -0.53125,-0.296875 -0.53125,-1.21875 0,-0.421875 0.0625,-1 0.3125,-1.96875 z m 0,0"
           id="path27801" />
      </g>
      <g
         style="fill:#000000;fill-opacity:1"
         id="g27807">
        <path
           inkscape:connector-curvature="0"
           style="stroke:none;stroke-width:0"
           d="m 154.71642,83.558139 c 0,-0.04687 0.17187,-0.671875 0.17187,-0.703125 0.0156,-0.0625 0.21875,-0.40625 0.45313,-0.578125 0.0625,-0.04687 0.25,-0.1875 0.5625,-0.1875 0.0625,0 0.23437,0 0.375,0.09375 -0.21875,0.0625 -0.29688,0.265625 -0.29688,0.390625 0,0.140625 0.10938,0.25 0.26563,0.25 0.17187,0 0.39062,-0.125 0.39062,-0.421875 0,-0.359375 -0.375,-0.515625 -0.73437,-0.515625 -0.35938,0 -0.67188,0.15625 -0.98438,0.5 -0.125,-0.421875 -0.54687,-0.5 -0.71875,-0.5 -0.25,0 -0.42187,0.171875 -0.54687,0.359375 -0.15625,0.265625 -0.25,0.671875 -0.25,0.71875 0,0.07813 0.0937,0.07813 0.125,0.07813 0.0937,0 0.0937,-0.01563 0.14062,-0.203125 0.10938,-0.421875 0.25,-0.75 0.51563,-0.75 0.1875,0 0.23437,0.15625 0.23437,0.34375 0,0.125 -0.0625,0.390625 -0.125,0.578125 -0.0469,0.1875 -0.10937,0.46875 -0.14062,0.625 l -0.23438,0.890625 c -0.0156,0.09375 -0.0625,0.265625 -0.0625,0.28125 0,0.15625 0.125,0.21875 0.23438,0.21875 0.10937,0 0.25,-0.0625 0.29687,-0.1875 0.0156,-0.04687 0.0937,-0.359375 0.14063,-0.53125 z m 0,0"
           id="path27805" />
      </g>
      <g
         style="fill:#000000;fill-opacity:1"
         id="g27811">
        <path
           inkscape:connector-curvature="0"
           style="stroke:none;stroke-width:0"
           d="m 175.18278,95.628861 c 0,-0.65625 -0.17187,-2.04688 -1.1875,-2.04688 -1.39062,0 -2.92187,2.8125 -2.92187,5.09375 0,0.9375 0.28125,2.046879 1.1875,2.046879 1.40625,0 2.92187,-2.859379 2.92187,-5.093749 z m -3.0625,1.35937 c 0.17188,-0.625 0.375,-1.42187 0.78125,-2.14062 0.26563,-0.48438 0.625,-1.04688 1.07813,-1.04688 0.48437,0 0.54687,0.64063 0.54687,1.20313 0,0.5 -0.0781,1 -0.3125,1.98437 z m 2,0.32813 c -0.10937,0.45312 -0.3125,1.29687 -0.70312,2.01562 -0.34375,0.687499 -0.71875,1.171879 -1.15625,1.171879 -0.32813,0 -0.53125,-0.29688 -0.53125,-1.218749 0,-0.42188 0.0625,-1 0.3125,-1.96875 z m 0,0"
           id="path27809" />
      </g>
      <g
         style="fill:#000000;fill-opacity:1"
         id="g27815">
        <path
           inkscape:connector-curvature="0"
           style="stroke:none;stroke-width:0"
           d="m 176.96916,100.70098 c 0,-0.0469 0.17187,-0.67187 0.17187,-0.703119 0.0156,-0.0625 0.21875,-0.40625 0.45313,-0.57813 0.0625,-0.0469 0.25,-0.1875 0.5625,-0.1875 0.0625,0 0.23437,0 0.375,0.0937 -0.21875,0.0625 -0.29688,0.26563 -0.29688,0.39063 0,0.14062 0.10938,0.25 0.26563,0.25 0.17187,0 0.39062,-0.125 0.39062,-0.42188 0,-0.35937 -0.375,-0.51562 -0.73437,-0.51562 -0.35938,0 -0.67188,0.15625 -0.98438,0.5 -0.125,-0.42188 -0.54687,-0.5 -0.71875,-0.5 -0.25,0 -0.42187,0.17187 -0.54687,0.35937 -0.15625,0.26563 -0.25,0.671879 -0.25,0.718749 0,0.0781 0.0937,0.0781 0.125,0.0781 0.0937,0 0.0937,-0.0156 0.14062,-0.203129 0.10938,-0.42187 0.25,-0.75 0.51563,-0.75 0.1875,0 0.23437,0.15625 0.23437,0.34375 0,0.125 -0.0625,0.39063 -0.125,0.578129 -0.0469,0.1875 -0.10937,0.46875 -0.14062,0.625 l -0.23438,0.89062 c -0.0156,0.0937 -0.0625,0.26563 -0.0625,0.28125 0,0.15625 0.125,0.21875 0.23438,0.21875 0.10937,0 0.25,-0.0625 0.29687,-0.1875 0.0156,-0.0469 0.0937,-0.35937 0.14063,-0.53125 z m 0,0"
           id="path27813" />
      </g>
    </g>
  </g>
  <path
     d="m 109.27907,115.65844 a 60.186848,59.548203 0 0 1 17.62518,11.91946"
     sodipodi:open="true"
     sodipodi:end="5.4902741"
     sodipodi:start="5.1336739"
     sodipodi:ry="59.548203"
     sodipodi:rx="60.186848"
     sodipodi:cy="170"
     sodipodi:cx="84.666664"
     sodipodi:type="arc"
     id="path27935"
     style="fill:none;fill-opacity:1;stroke:#000000;stroke-width:0.66499996;stroke-linecap:square;stroke-linejoin:miter;stroke-miterlimit:4;stroke-dasharray:none;stroke-dashoffset:0;stroke-opacity:1" />
  <path
     sodipodi:open="true"
     d="m 113.28783,106.45397 a 68.345131,69.977646 0 0 1 29.23541,26.29466"
     sodipodi:end="5.7218319"
     sodipodi:start="5.1444838"
     sodipodi:ry="69.977646"
     sodipodi:rx="68.345131"
     sodipodi:cy="170"
     sodipodi:cx="84.666664"
     sodipodi:type="arc"
     id="path27939"
     style="fill:none;fill-opacity:1;stroke:#000000;stroke-width:0.66499996;stroke-linecap:square;stroke-linejoin:miter;stroke-miterlimit:4;stroke-dasharray:none;stroke-dashoffset:0;stroke-opacity:1" />
  <g
     id="g28077"
     ns1:jacobian_sqrt="0.705556"
     ns1:alignment="middle center"
     ns1:scale="2.0"
     ns1:preamble="C:\\Users\\perei\\AppData\\Roaming\\inkscape\\extensions\\textext\\default_packages.tex"
     ns1:text="$\\theta_u$\n$\\hat{\\theta}_u$"
     ns1:pdfconverter="pdf2svg"
     ns1:texconverter="pdflatex"
     ns1:version="0.10.2"
     transform="matrix(0.705556,0,0,0.705556,57.700512,-5.1378986)">
    <g
       id="g28075">
      <g
         id="g28057"
         style="fill:#000000;fill-opacity:1">
        <path
           id="path28055"
           d="m 103.95757,164.20025 c 0,-0.65625 -0.17188,-2.04688 -1.1875,-2.04688 -1.39063,0 -2.921878,2.8125 -2.921878,5.09375 0,0.9375 0.281248,2.04688 1.187498,2.04688 1.40625,0 2.92188,-2.85938 2.92188,-5.09375 z m -3.0625,1.35937 c 0.17187,-0.625 0.375,-1.42187 0.78125,-2.14062 0.26562,-0.48438 0.625,-1.04688 1.07812,-1.04688 0.48438,0 0.54688,0.64063 0.54688,1.20313 0,0.5 -0.0781,1 -0.3125,1.98437 z m 2,0.32813 c -0.10938,0.45312 -0.3125,1.29687 -0.70313,2.01562 -0.34375,0.6875 -0.71875,1.17188 -1.15625,1.17188 -0.32812,0 -0.53125,-0.29688 -0.53125,-1.21875 0,-0.42188 0.0625,-1 0.3125,-1.96875 z m 0,0"
           style="stroke:none;stroke-width:0"
           inkscape:connector-curvature="0" />
      </g>
      <g
         id="g28061"
         style="fill:#000000;fill-opacity:1">
        <path
           id="path28059"
           d="m 107.05644,169.55362 c -0.0469,0.14063 -0.10937,0.40625 -0.10937,0.40625 -0.14063,0.21875 -0.42188,0.59375 -0.84375,0.59375 -0.48438,0 -0.48438,-0.45312 -0.48438,-0.57812 0,-0.40625 0.1875,-0.90625 0.39063,-1.42188 0.0469,-0.14062 0.0937,-0.23437 0.0937,-0.34375 0,-0.375 -0.3125,-0.60937 -0.65625,-0.60937 -0.70313,0 -1.01563,0.95312 -1.01563,1.07812 0,0.0781 0.0937,0.0781 0.125,0.0781 0.0937,0 0.0937,-0.0312 0.125,-0.10938 0.15625,-0.5625 0.46875,-0.84375 0.73438,-0.84375 0.125,0 0.17187,0.0781 0.17187,0.23438 0,0.17187 -0.0469,0.3125 -0.125,0.46875 -0.375,0.96875 -0.375,1.17187 -0.375,1.35937 0,0.10938 0,0.4375 0.26563,0.65625 0.20312,0.17188 0.46875,0.21875 0.71875,0.21875 0.4375,0 0.67187,-0.23437 0.90625,-0.45312 0.15625,0.45312 0.60937,0.45312 0.70312,0.45312 0.23438,0 0.42188,-0.125 0.54688,-0.35937 0.15625,-0.28125 0.25,-0.67188 0.25,-0.70313 0,-0.0937 -0.0937,-0.0937 -0.10938,-0.0937 -0.10937,0 -0.10937,0.0312 -0.15625,0.21875 -0.0937,0.32813 -0.21875,0.75 -0.51562,0.75 -0.17188,0 -0.23438,-0.15625 -0.23438,-0.34375 0,-0.10937 0.0625,-0.375 0.10938,-0.54687 0.0469,-0.1875 0.125,-0.46875 0.15625,-0.625 l 0.15625,-0.625 c 0.0469,-0.17188 0.125,-0.48438 0.125,-0.51563 0,-0.14062 -0.10938,-0.21875 -0.23438,-0.21875 -0.25,0 -0.3125,0.20313 -0.35937,0.42188 z m 0,0"
           style="stroke:none;stroke-width:0"
           inkscape:connector-curvature="0" />
      </g>
      <g
         id="g28065"
         style="fill:#000000;fill-opacity:1">
        <path
           id="path28063"
           d="m 81.139854,177.67889 -1.34375,1.35937 0.171875,0.17188 1.171875,-1.01563 1.140625,1.01563 0.171875,-0.17188 z m 0,0"
           style="stroke:none;stroke-width:0"
           inkscape:connector-curvature="0" />
      </g>
      <g
         id="g28069"
         style="fill:#000000;fill-opacity:1">
        <path
           id="path28067"
           d="m 82.355104,182.24539 c 0,-0.65625 -0.171875,-2.04688 -1.1875,-2.04688 -1.390625,0 -2.921875,2.8125 -2.921875,5.09375 0,0.9375 0.28125,2.04688 1.1875,2.04688 1.40625,0 2.921875,-2.85938 2.921875,-5.09375 z m -3.0625,1.35937 c 0.171875,-0.625 0.375,-1.42187 0.78125,-2.14062 0.265625,-0.48438 0.625,-1.04688 1.078125,-1.04688 0.484375,0 0.546875,0.64063 0.546875,1.20313 0,0.5 -0.07813,1 -0.3125,1.98437 z m 2,0.32813 c -0.109375,0.45312 -0.3125,1.29687 -0.703125,2.01562 -0.34375,0.6875 -0.71875,1.17188 -1.15625,1.17188 -0.328125,0 -0.53125,-0.29688 -0.53125,-1.21875 0,-0.42188 0.0625,-1 0.3125,-1.96875 z m 0,0"
           style="stroke:none;stroke-width:0"
           inkscape:connector-curvature="0" />
      </g>
      <g
         id="g28073"
         style="fill:#000000;fill-opacity:1">
        <path
           id="path28071"
           d="m 85.452979,187.59876 c -0.04687,0.14063 -0.109375,0.40625 -0.109375,0.40625 -0.140625,0.21875 -0.421875,0.59375 -0.84375,0.59375 -0.484375,0 -0.484375,-0.45312 -0.484375,-0.57812 0,-0.40625 0.1875,-0.90625 0.390625,-1.42188 0.04687,-0.14062 0.09375,-0.23437 0.09375,-0.34375 0,-0.375 -0.3125,-0.60937 -0.65625,-0.60937 -0.703125,0 -1.015625,0.95312 -1.015625,1.07812 0,0.0781 0.09375,0.0781 0.125,0.0781 0.09375,0 0.09375,-0.0312 0.125,-0.10938 0.15625,-0.5625 0.46875,-0.84375 0.734375,-0.84375 0.125,0 0.171875,0.0781 0.171875,0.23438 0,0.17187 -0.04687,0.3125 -0.125,0.46875 -0.375,0.96875 -0.375,1.17187 -0.375,1.35937 0,0.10938 0,0.4375 0.265625,0.65625 0.203125,0.17188 0.46875,0.21875 0.71875,0.21875 0.4375,0 0.671875,-0.23437 0.90625,-0.45312 0.15625,0.45312 0.609375,0.45312 0.703125,0.45312 0.234375,0 0.421875,-0.125 0.546875,-0.35937 0.15625,-0.28125 0.25,-0.67188 0.25,-0.70313 0,-0.0937 -0.09375,-0.0937 -0.109375,-0.0937 -0.109375,0 -0.109375,0.0312 -0.15625,0.21875 -0.09375,0.32813 -0.21875,0.75 -0.515625,0.75 -0.171875,0 -0.234375,-0.15625 -0.234375,-0.34375 0,-0.10937 0.0625,-0.375 0.109375,-0.54687 0.04687,-0.1875 0.125,-0.46875 0.15625,-0.625 l 0.15625,-0.625 c 0.04687,-0.17188 0.125,-0.48438 0.125,-0.51563 0,-0.14062 -0.109375,-0.21875 -0.234375,-0.21875 -0.25,0 -0.3125,0.20313 -0.359375,0.42188 z m 0,0"
           style="stroke:none;stroke-width:0"
           inkscape:connector-curvature="0" />
      </g>
    </g>
  </g>
</svg>
