<?xml version="1.0" encoding="UTF-8" standalone="no"?>
<!-- Created with Inkscape (http://www.inkscape.org/) -->

<svg
   xmlns:dc="http://purl.org/dc/elements/1.1/"
   xmlns:cc="http://creativecommons.org/ns#"
   xmlns:rdf="http://www.w3.org/1999/02/22-rdf-syntax-ns#"
   xmlns:svg="http://www.w3.org/2000/svg"
   xmlns="http://www.w3.org/2000/svg"
   xmlns:sodipodi="http://sodipodi.sourceforge.net/DTD/sodipodi-0.dtd"
   xmlns:inkscape="http://www.inkscape.org/namespaces/inkscape"
   width="210mm"
   height="297mm"
   viewBox="0 0 210 297"
   version="1.1"
   id="svg8"
   inkscape:version="0.92.3 (2405546, 2018-03-11)"
   sodipodi:docname="cafeluna.svg">
  <defs
     id="defs2" />
  <sodipodi:namedview
     id="base"
     pagecolor="#ffffff"
     bordercolor="#666666"
     borderopacity="1.0"
     inkscape:pageopacity="0.0"
     inkscape:pageshadow="2"
     inkscape:zoom="3.959798"
     inkscape:cx="333.44068"
     inkscape:cy="423.60675"
     inkscape:document-units="mm"
     inkscape:current-layer="layer1"
     showgrid="false"
     inkscape:window-width="1920"
     inkscape:window-height="1017"
     inkscape:window-x="-8"
     inkscape:window-y="-8"
     inkscape:window-maximized="1" />
  <metadata
     id="metadata5">
    <rdf:RDF>
      <cc:Work
         rdf:about="">
        <dc:format>image/svg+xml</dc:format>
        <dc:type
           rdf:resource="http://purl.org/dc/dcmitype/StillImage" />
        <dc:title></dc:title>
      </cc:Work>
    </rdf:RDF>
  </metadata>
  <g
     inkscape:label="Layer 1"
     inkscape:groupmode="layer"
     id="layer1">
    <path
       style="fill:#000000;stroke-width:0.35277778"
       d="m 73.083019,198.5216 c -0.310497,-0.72761 -0.640294,-2.55323 -0.732882,-4.05695 -0.09259,-1.50371 -0.267007,-2.73088 -0.387598,-2.72703 -0.120591,0.004 -0.695506,0.81218 -1.27759,1.79627 -1.71551,2.90033 -2.651343,2.96439 -3.146825,0.2154 -0.132117,-0.73299 -0.367494,-1.25405 -0.52306,-1.15791 -0.155566,0.0961 -0.04475,-0.54841 0.24625,-1.43235 0.902295,-2.74076 2.130117,-2.45382 2.130117,0.49781 0,2.42543 0.499732,2.45669 1.94114,0.12143 1.524727,-2.47026 1.597821,-3.06957 0.410712,-3.36751 -0.48507,-0.12175 -0.881945,-0.3715 -0.881945,-0.555 0,-0.49547 1.283565,-1.09083 1.868151,-0.8665 0.321084,0.12321 0.761783,-0.23439 1.197117,-0.9714 0.861572,-1.45862 3.080375,-2.74659 3.686831,-2.14014 0.647617,0.64762 -0.275842,1.54803 -1.319106,1.28619 -0.679749,-0.1706 -0.905146,-0.0288 -1.204227,0.75789 -0.461357,1.21347 -0.277819,1.39306 1.346406,1.31745 l 1.303995,-0.0607 -1.574851,0.43775 c -1.792445,0.49823 -2.037662,0.98283 -2.094151,4.13849 -0.03452,1.92832 0.778539,5.47402 1.405505,6.12934 0.325717,0.34044 -0.930454,1.96038 -1.520165,1.96038 -0.170107,0 -0.563328,-0.59531 -0.873824,-1.32291 z M 56.36658,195.39649 c -0.32691,-0.39462 -0.496868,-1.46217 -0.494142,-3.10383 0.0054,-3.24592 1.022926,-5.43481 3.304994,-7.1096 1.872091,-1.37392 3.296089,-1.54752 4.035428,-0.49196 l 0.505417,0.72158 2.297029,-0.91956 c 2.013127,-0.80591 2.327138,-1.0586 2.540632,-2.0445 0.238966,-1.10353 0.249882,-1.10901 0.57355,-0.28801 0.279489,0.70893 0.497214,0.80347 1.423718,0.61817 1.067655,-0.21353 1.081312,-0.19974 0.571987,0.57759 -0.460758,0.7032 -0.460408,0.88877 0.003,1.58668 0.505175,0.76085 0.484402,0.79035 -0.556599,0.79035 -0.710094,0 -1.26568,0.26316 -1.618222,0.76648 -0.570546,0.81457 -0.515516,0.86263 -1.079572,-0.94287 -0.263956,-0.8449 -1.800847,-0.6181 -4.166271,0.61483 -2.860962,1.49122 -2.978406,1.5348 -2.467778,0.91581 0.331588,-0.40195 0.335706,-0.62124 0.01764,-0.93931 -0.739093,-0.73909 -1.284011,-0.44635 -2.255786,1.21186 -0.724341,1.23599 -0.960063,2.11968 -0.981242,3.67853 -0.01533,1.12846 0.07753,2.15715 0.206354,2.28597 0.463204,0.46321 1.541554,-0.22131 2.580457,-1.63801 1.878277,-2.56134 5.295351,-4.48632 7.141317,-4.02301 l 0.955254,0.23975 -0.873286,0.67103 c -0.480307,0.36907 -1.121695,0.67456 -1.425308,0.67887 -1.043724,0.0148 -2.292552,3.92485 -1.505078,4.71232 0.129775,0.12978 0.54975,-0.0422 0.933277,-0.38217 0.675883,-0.59913 0.684814,-0.59429 0.290482,0.15752 -0.497011,0.94758 -1.760922,1.87018 -2.562032,1.87018 -0.887752,0 -1.371338,-1.76413 -0.971455,-3.54388 0.636039,-2.8308 0.08595,-2.47672 -3.313391,2.13277 -1.275051,1.72896 -2.332317,2.13564 -3.110372,1.19642 z m 13.789203,-10.77743 c 0,-0.13149 0.106935,-0.51773 0.237634,-0.85833 0.181881,-0.47397 0.101764,-0.56713 -0.34148,-0.39704 -0.318513,0.12223 -0.675051,0.067 -0.792308,-0.12272 -0.11738,-0.18993 -0.494369,0.002 -0.83884,0.42769 -0.55832,0.68949 -0.56888,0.83894 -0.09813,1.38873 0.424228,0.49547 0.655341,0.53627 1.180321,0.20842 0.359042,-0.22423 0.652803,-0.51526 0.652803,-0.64675 z m 14.111111,10.96986 c 0,-0.15888 0.15875,-0.38699 0.352777,-0.50691 0.194028,-0.11991 0.352778,-1.30319 0.352778,-2.62949 0,-3.37705 1.096687,-6.77469 2.555159,-7.91611 0.62012,-0.48532 1.197489,-0.8124 1.283041,-0.72685 0.08555,0.0856 -0.263341,1.22811 -0.775319,2.539 -1.024658,2.6236 -1.083394,2.95442 -1.00211,5.64421 l 0.0559,1.84966 3.175,-0.0441 3.175,-0.0441 0.0021,-1.45274 c 0.0028,-2.19035 0.615383,-3.95964 1.592101,-4.5996 0.989062,-0.64806 1.017256,-0.54805 0.511012,1.81248 -0.217247,1.01299 -0.245374,2.26633 -0.06967,3.10417 l 0.294693,1.40521 0.671907,-1.05833 c 0.369549,-0.58209 1.022449,-1.4911 1.450891,-2.02003 0.428445,-0.52892 0.879609,-1.41981 1.002591,-1.97974 0.193978,-0.88318 1.762785,-2.12871 2.169245,-1.72224 0.0689,0.0689 -0.11761,1.28997 -0.41443,2.71353 -0.719063,3.44867 -0.20679,3.96263 1.19597,1.1999 1.26956,-2.50038 2.93665,-4.20238 3.79395,-3.8734 0.51523,0.19771 0.57134,0.58071 0.39437,2.69166 -0.11364,1.35363 -0.148,2.46115 -0.0765,2.46115 0.0715,0 0.62477,-0.86482 1.22952,-1.92182 1.01652,-1.77669 2.85722,-3.72263 3.52131,-3.72263 0.52971,0 0.70194,2.09877 0.33509,4.08328 -0.20162,1.09066 -0.2761,2.07349 -0.16551,2.18408 0.11059,0.11059 1.35791,-0.92066 2.77184,-2.29166 2.54629,-2.46901 4.49379,-3.62292 6.11453,-3.62292 0.94654,0 1.14979,0.86353 0.28166,1.19667 -0.30646,0.1176 -0.93007,0.12023 -1.3858,0.006 -0.67724,-0.16998 -1.02224,0.0594 -1.8887,1.25547 -1.17566,1.62295 -1.71597,3.42434 -1.18604,3.95427 0.22521,0.22521 0.88172,-0.28584 1.88777,-1.46951 0.84836,-0.99815 1.96356,-2.03842 2.47821,-2.31172 1.16048,-0.61625 1.35732,-0.25807 1.35732,2.46991 0,1.10694 0.18774,2.02404 0.46073,2.2506 0.2534,0.2103 2.03934,0.43464 3.96875,0.49853 3.27484,0.10843 3.19674,0.12106 -1.17502,0.18999 l -4.68304,0.0738 -0.34404,-0.90491 c -0.18923,-0.4977 -0.34405,-1.4502 -0.34405,-2.11667 0,-0.66646 -0.11906,-1.21145 -0.26458,-1.21107 -0.14552,3.9e-4 -0.79922,0.78511 -1.45266,1.74386 -1.13294,1.66229 -2.53275,2.5573 -3.48623,2.22904 -0.25731,-0.0886 -0.44098,-0.76003 -0.44098,-1.61207 v -1.46025 l -1.52152,1.7291 c -2.34333,2.66301 -3.23148,1.72889 -2.80528,-2.9505 0.26363,-2.89459 -0.16146,-2.67712 -2.02952,1.03827 -2.19708,4.36977 -3.84514,4.71043 -3.18776,0.65892 0.71332,-4.39628 0.2589,-4.66161 -1.60316,-0.93608 -1.48237,2.96587 -2.13124,3.79236 -2.977391,3.79236 -0.644983,0 -1.032009,-0.95182 -1.039985,-2.55764 -0.007,-1.40479 -0.405352,-1.19319 -1.504019,0.79883 -1.058411,1.91905 -1.910538,2.22572 -3.361189,1.20964 -0.710191,-0.49743 -0.784052,-0.49714 -0.784052,0.003 0,0.45709 -0.319137,0.51688 -1.852083,0.34697 -1.093238,-0.12118 -2.827742,0.004 -4.233333,0.30661 -1.309688,0.28155 -2.38125,0.38192 -2.38125,0.22303 z m -7.575663,-1.01856 c -0.296024,-0.57244 -0.538226,-1.28682 -0.538226,-1.5875 0,-0.30067 -0.198438,-0.54911 -0.440972,-0.55208 -0.307597,-0.004 -0.322749,-0.0838 -0.0501,-0.26459 0.214981,-0.14255 0.721046,-1.0111 1.124588,-1.93012 0.541911,-1.23413 1.07097,-1.83176 2.023852,-2.28616 1.248183,-0.59522 1.306592,-0.59273 1.796026,0.0766 0.74291,1.01599 0.479441,1.62245 -1.192767,2.74552 -1.449177,0.97327 -1.751155,1.64899 -1.282608,2.87001 0.359358,0.93647 0.973852,0.63074 2.001395,-0.99577 0.925509,-1.465 2.610038,-3.27295 1.839235,-1.97399 -0.172705,0.29104 -0.865573,1.32292 -1.539708,2.29306 -2.057889,2.96148 -2.861056,3.30609 -3.740717,1.60501 z m 2.213441,-3.96863 c 0.540353,-0.54035 0.55181,-1.44217 0.01605,-1.26359 -0.471255,0.15709 -1.115358,1.68693 -0.710239,1.68693 0.14897,0 0.461354,-0.1905 0.694189,-0.42334 z m 44.661658,-1.83444 c -0.65969,-0.65969 -1.18938,-1.49313 -1.17708,-1.85208 0.0172,-0.50192 0.10296,-0.45064 0.37135,0.22205 0.19195,0.48108 0.60055,1.15266 0.90802,1.4924 0.70929,0.78377 2.8462,1.21081 3.38129,0.67572 0.29412,-0.29412 0.24972,-0.39698 -0.17138,-0.39698 -0.6224,0 -2.39855,-1.92163 -2.38903,-2.5847 0.003,-0.22765 0.32537,0.0847 0.71578,0.69405 0.39041,0.60939 1.18149,1.30333 1.75795,1.54211 1.25153,0.5184 1.33252,0.89559 0.25435,1.18452 -1.61843,0.43373 -2.46769,0.20646 -3.65125,-0.97709 z M 95.203005,185.7334 c 0.707707,-0.45736 6.349995,-0.45736 6.349995,0 0,0.21143 -1.37811,0.35061 -3.439579,0.34738 -2.351066,-0.004 -3.272119,-0.11363 -2.910416,-0.34738 z m 26.834915,-0.47585 c -0.0309,-1.30326 0.93724,-3.32781 1.81628,-3.79826 0.37938,-0.20304 0.73749,-0.31661 0.79579,-0.25239 0.0583,0.0642 -0.0214,1.14865 -0.17718,2.40983 l -0.28319,2.29306 0.0588,-2.02895 c 0.0323,-1.11593 -0.0408,-2.02874 -0.16261,-2.02848 -0.47963,0.001 -1.15374,1.17744 -1.57822,2.7542 -0.35341,1.31272 -0.45076,1.44767 -0.46964,0.65099 z"
       id="path826"
       inkscape:connector-curvature="0" />
    <path
       style="fill:#000000;fill-opacity:1;stroke:none;stroke-width:0.07610576;stroke-linecap:square;stroke-linejoin:miter;stroke-miterlimit:4;stroke-dasharray:0.45663454, 0.45663453999999998;stroke-dashoffset:0;stroke-opacity:1"
       d="m 68.476091,185.46593 c -0.317303,-0.25486 -0.641232,-0.75533 -0.641232,-0.99073 0,-0.20702 0.446741,-0.86898 0.786715,-1.16569 0.229981,-0.20071 0.478466,-0.24694 0.626282,-0.11651 0.203174,0.17928 0.448289,0.20813 0.854292,0.10059 0.476567,-0.12622 0.507825,-0.0653 0.301727,0.58843 -0.08368,0.26545 -0.17382,0.59346 -0.200298,0.72895 -0.05368,0.27462 -0.406,0.62805 -0.863851,0.86654 -0.379557,0.19772 -0.606821,0.19466 -0.863635,-0.0116 z"
       id="path830"
       inkscape:connector-curvature="0" />
    <path
       style="fill:none;stroke:#000000;stroke-width:0.20810002px;stroke-linecap:butt;stroke-linejoin:miter;stroke-opacity:1"
       d="m 122.15699,185.53796 c 0.0744,0.84766 0.38691,1.61765 0.38691,1.61765"
       id="path832"
       inkscape:connector-curvature="0" />
    <path
       style="fill:none;stroke:#000000;stroke-width:0.25002757px;stroke-linecap:butt;stroke-linejoin:miter;stroke-opacity:1"
       d="m 124.06086,185.90339 0.61613,0.62239"
       id="path834"
       inkscape:connector-curvature="0" />
    <path
       style="fill:#000000;fill-opacity:1;stroke:none;stroke-width:0.01771165;stroke-linecap:square;stroke-linejoin:miter;stroke-miterlimit:4;stroke-dasharray:0.1062699, 0.1062699;stroke-dashoffset:0;stroke-opacity:1"
       d="m 126.17037,189.6728 c -0.29002,-0.0269 -0.44711,-0.0477 -0.63781,-0.0839 -0.74382,-0.14156 -1.42604,-0.4309 -1.80036,-0.76358 -0.34904,-0.31021 -0.83723,-1.04747 -1.11072,-1.67744 -0.1106,-0.25471 -0.20613,-0.43298 -0.26226,-0.48933 -0.057,-0.0572 -0.14911,-0.39674 -0.20515,-0.75616 -0.021,-0.13477 -0.0443,-0.27209 -0.0516,-0.30512 -0.0101,-0.0434 -10e-4,-0.096 0.0294,-0.18884 0.0236,-0.0709 0.10836,-0.34893 0.18833,-0.61805 0.08,-0.26909 0.1868,-0.60901 0.23738,-0.75538 0.44045,-1.27427 1.06461,-2.21345 1.48641,-2.23663 0.0666,-0.004 0.0684,-0.002 0.0994,0.0859 0.0483,0.13749 0.0847,0.44491 0.10676,0.90233 0.0204,0.42464 0.0172,0.65065 -0.0298,2.14114 -0.0144,0.45795 -0.0264,0.8582 -0.0264,0.88944 -5e-5,0.0354 -0.007,0.0526 -0.0192,0.0456 -0.0173,-0.0102 -0.19907,0.13307 -0.21535,0.16959 -0.003,0.008 0.13279,0.14759 0.30336,0.30935 0.28786,0.27298 0.31547,0.30476 0.38399,0.44178 0.32038,0.64084 1.3152,1.66941 2.01524,2.0836 0.21618,0.12793 0.32058,0.16152 0.55788,0.1795 0.29791,0.0225 0.34571,0.0696 0.23331,0.22951 -0.13532,0.19252 -0.32895,0.30568 -0.6192,0.36182 -0.1375,0.0266 -0.53074,0.0472 -0.66371,0.035 z"
       id="path836"
       inkscape:connector-curvature="0" />
    <path
       style="fill:#000000;fill-opacity:1;stroke:none;stroke-width:0.01061347;stroke-linecap:square;stroke-linejoin:miter;stroke-miterlimit:4;stroke-dasharray:0.06368089, 0.06368089;stroke-dashoffset:0;stroke-opacity:1"
       d="m 124.90174,187.01296 c -0.0317,-0.0376 -0.20139,-0.20992 -0.3771,-0.38277 -0.38119,-0.37496 -0.61805,-0.621 -0.61805,-0.64202 0,-0.008 0.008,-0.0219 0.0174,-0.03 0.0154,-0.0137 0.0703,0.0401 0.50428,0.4891 0.40924,0.42338 0.49101,0.51301 0.51215,0.56143 0.014,0.0316 0.0238,0.061 0.022,0.0651 -10e-4,0.004 -0.029,-0.0233 -0.0607,-0.0609 z"
       id="path838"
       inkscape:connector-curvature="0" />
    <path
       style="fill:#000000;fill-opacity:1;stroke:none;stroke-width:0.04471316;stroke-linecap:square;stroke-linejoin:miter;stroke-miterlimit:4;stroke-dasharray:0.26827897, 0.26827897;stroke-dashoffset:0;stroke-opacity:1"
       d=""
       id="path840"
       inkscape:connector-curvature="0"
       transform="scale(0.26458333)" />
    <path
       style="fill:#000000;fill-opacity:1;stroke:none;stroke-width:0.02759582;stroke-linecap:square;stroke-linejoin:miter;stroke-miterlimit:4;stroke-dasharray:0.16557496, 0.16557496;stroke-dashoffset:0;stroke-opacity:1"
       d="m 126.99381,189.07629 c -0.18416,-0.0441 -0.52973,-0.2077 -0.60448,-0.28614 -0.0441,-0.0462 -0.0412,-0.048 0.0458,-0.0296 0.051,0.0103 0.22468,0.0312 0.38601,0.0453 0.32913,0.0288 0.47689,0.0884 0.51923,0.2096 0.0151,0.0431 0.0274,0.0849 0.0274,0.0927 0,0.0263 -0.2035,0.009 -0.37395,-0.0319 z"
       id="path842"
       inkscape:connector-curvature="0" />
    <path
       style="fill:#000000;fill-opacity:1;stroke:none;stroke-width:0.00790424;stroke-linecap:square;stroke-linejoin:miter;stroke-miterlimit:4;stroke-dasharray:0.04742547, 0.04742547;stroke-dashoffset:0;stroke-opacity:1"
       d="m 480.80993,714.50216 c -0.0152,-0.002 -0.1022,-0.01 -0.19335,-0.0188 -0.60111,-0.0582 -0.97068,-0.16393 -1.45999,-0.4175 -0.21166,-0.10968 -0.61703,-0.34481 -0.60875,-0.35309 0.002,-0.002 0.051,0.0175 0.10892,0.0434 0.19611,0.0877 0.38499,0.15252 0.56691,0.19443 0.10304,0.0237 0.0814,0.025 -0.0683,0.004 -0.13632,-0.0191 -0.15171,-0.0147 -0.10138,0.0294 0.0498,0.0437 0.12762,0.0866 0.26211,0.14454 0.30039,0.12947 0.68847,0.25041 0.93541,0.2915 0.24294,0.0404 0.53634,0.0651 0.60567,0.0509 0.0412,-0.008 0.046,-0.005 0.0348,0.024 -0.005,0.0124 -0.0181,0.0136 -0.082,0.007 z"
       id="path844"
       inkscape:connector-curvature="0"
       transform="scale(0.26458333)" />
    <path
       style="fill:#000000;fill-opacity:1;stroke:none;stroke-width:0.00790424;stroke-linecap:square;stroke-linejoin:miter;stroke-miterlimit:4;stroke-dasharray:0.04742547, 0.04742547;stroke-dashoffset:0;stroke-opacity:1"
       d="m 480.8701,714.3791 c -0.0296,-0.0744 -0.0628,-0.1266 -0.0985,-0.15468 -0.14669,-0.11539 -0.38162,-0.16577 -0.97975,-0.21008 -0.14975,-0.0111 -0.27937,-0.0217 -0.28805,-0.0235 -0.0289,-0.006 0.40089,0.004 0.50902,0.0121 0.49652,0.0368 0.76923,0.13336 0.85214,0.30177 0.0201,0.0409 0.0415,0.13202 0.0309,0.13168 -0.002,-5e-5 -0.0133,-0.0258 -0.0258,-0.0572 z"
       id="path846"
       inkscape:connector-curvature="0"
       transform="scale(0.26458333)" />
    <path
       style="fill:none;stroke:#000000;stroke-width:0.26458332px;stroke-linecap:butt;stroke-linejoin:miter;stroke-opacity:1"
       d="m 124.07987,185.57366 c 0.001,0.40295 0.14199,0.5429 0.14199,0.5429"
       id="path848"
       inkscape:connector-curvature="0" />
  </g>
</svg>
